# xmcd CD database file
#
# Track frame offsets:
#	150
#	11282
#	21893
#	35151
#	44867
#	56508
#	69462
#	80955
#	91666
#	106342
#	118627
#	132954
#	145005
#	163687
#	173344
#	185642
#	195827
#	209245
#	222895
#	232579
#	246576
#
# Disc length: 3484 seconds
#
# Revision: 0
# Processed by: cddbd v1.5.2PL0 Copyright (c) Steve Scherf et al.
# Submitted via: CDex 1.99.1
#
DISCID=280d9a15
DTITLE=Various Artist - Country Music's Golden Hits - Disk 2
DYEAR=1900
DGENRE=Country
TTITLE0=King Of The Road
TTITLE1=Lovesick Blues
TTITLE2=Hey Good Lookin'
TTITLE3=Boo Boo Stick Beat
TTITLE4=Sea Of Heartbreak
TTITLE5=Four Walls
TTITLE6=The Cattle Call
TTITLE7=San Antonio Rose
TTITLE8=Rhinestone Cowboy
TTITLE9=Armstrong
TTITLE10=Amanda
TTITLE11=Jolene
TTITLE12=Sunday Mornin' Comin' Down
TTITLE13=I Love
TTITLE14=Rollin' With The Flow
TTITLE15=(Is Anybody Goin' To) San Antone
TTITLE16=There's A Honky Tonk Angel (Who'll Take Me Back In)
TTITLE17=Coal Miner's Daughter
TTITLE18=Theme From 'The Dukes Of Hazzard' (Good Ol' Boys)
TTITLE19=My Heroes Have Always Been Cowboys
TTITLE20=Waltzing Matilda
EXTD=
EXTT0=
EXTT1=
EXTT2=
EXTT3=
EXTT4=
EXTT5=
EXTT6=
EXTT7=
EXTT8=
EXTT9=
EXTT10=
EXTT11=
EXTT12=
EXTT13=
EXTT14=
EXTT15=
EXTT16=
EXTT17=
EXTT18=
EXTT19=
EXTT20=
PLAYORDER=
